# xmcd
#
# Track frame offsets:
#	150
#	18265
#	31994
#	52589
#	66686
#	83591
#	102232
#	120268
#	141719
#	158449
#	173437
#	187500
#	207055
#	223800
#	239811
#	257821
#	285546
#	303272
#	318742
#	337721
#
# Disc length: 4758 seconds
#
# Revision: 0
# Processed by: cddbd v1.5.2PL0 Copyright (c) Steve Scherf et al.
# Submitted via: audiograbber 1.83.01
#
DISCID=0c129414
DTITLE=Various Artist - Radioactive Urban Radio - April 2013
DYEAR=2013
DGENRE=Urban
TTITLE0=J. Cole Feat. Miguel - Power Trip
TTITLE1=French Montana Feat. Nicki Minaj - Freaks
TTITLE2=Miguel - How Many Drinks?
TTITLE3=Kayla Brianna Feat. Meek Mill - I Got That
TTITLE4=T. Mills - Loud
TTITLE5=T.I. Feat. Cee Lo Green - Hello
TTITLE6=Meek Mill Feat. Rick Ross - Believe It
TTITLE7=Birdman Pres. Rich Gang Feat. Lil Wayne, Birdman, Future, Mack Maine and 
TTITLE7=Nicki Minaj - Tapout
TTITLE8=John Blu - At My Crib
TTITLE9=Jonn Hart - Band$ On Band$
TTITLE10=Baby Bash Feat. Problem - Dance All Night
TTITLE11=Wiz Khalifa Feat. Akon - Let It Go
TTITLE12=T. Rone - Hello Love (F.U.)
TTITLE13=Yo Gotti - Check
TTITLE14=Future Feat. Lil Wayne - Karate Chop (Remix)
TTITLE15=Kendrick Lamar Feat. Rick Ross - B**Ch, Don't Kill My Vibe (Remix)
TTITLE16=Ciara - Body Party
TTITLE17=Ca$h Out Feat. B.o.B - Exclusive
TTITLE18=The-Dream Feat. Fabolous - Slow It Down
TTITLE19=Wale Feat. Tiara Thomas - Bad
EXTD=
EXTT0=
EXTT1=
EXTT2=
EXTT3=
EXTT4=
EXTT5=
EXTT6=
EXTT7=
EXTT8=
EXTT9=
EXTT10=
EXTT11=
EXTT12=
EXTT13=
EXTT14=
EXTT15=
EXTT16=
EXTT17=
EXTT18=
EXTT19=
PLAYORDER=
